<svg width="158" height="60" viewBox="0 0 158 60" fill="none" xmlns="http://www.w3.org/2000/svg">
<g id="logo brands democracy blue 1" clip-path="url(#clip0_6_76)">
<path id="Vector" d="M5.29276 35.21V4.19806H15.586L18.1577 6.78021V17.1219L15.586 19.704L18.1577 22.2895V32.6442L15.586 35.21H5.29276ZM13.0046 17.1219V9.3689H10.4329V17.1219H13.0046ZM13.0046 30.0425V22.2895H10.4329V30.0327L13.0046 30.0425Z" fill="#233A6B"/>
<path id="Vector_2" d="M21.2067 35.21V4.19806H31.4967L34.0684 6.78021V17.1219L31.4967 19.704L34.0684 22.2895V35.21H28.9186V22.2895H26.3501V35.21H21.2067ZM28.9186 17.1219V9.3689H26.3501V17.1219H28.9186Z" fill="#233A6B"/>
<path id="Vector_3" d="M36.3024 35.21V6.78345L38.8741 4.20129H46.586L49.1544 6.78345V35.21H44.0143V24.8749H41.4426V35.21H36.3024ZM44.0143 19.704V9.36887H41.4426V19.704H44.0143Z" fill="#233A6B"/>
<path id="Vector_4" d="M52.2197 35.21V6.78345L54.7914 4.20129H62.5032L65.0716 6.78345V35.21H59.9315V9.36887H57.3598V35.21H52.2197Z" fill="#233A6B"/>
<path id="Vector_5" d="M68.1369 35.21V4.19806H78.4171L80.9888 6.78021V32.6442L78.4171 35.2263L68.1369 35.21ZM75.8487 30.0327V9.3689H73.277V30.0327H75.8487Z" fill="#233A6B"/>
<path id="Vector_6" d="M85.8108 35.21L83.2391 32.6442V24.8749H88.3792V30.0326H90.9509V22.2894H85.8108L83.2391 19.704V6.78345L85.8108 4.20129H93.5161L96.0878 6.78345V14.5364H90.9509V9.36887H88.3792V17.1219H93.5161L96.0878 19.704V32.6442L93.5161 35.21H85.8108Z" fill="#233A6B"/>
<path id="Vector_7" d="M5.29276 55.8836V36.803H11.6181L13.1994 38.3928V54.2938L11.6181 55.8836H5.29276ZM10.0367 52.704V39.9728H8.44243V52.704H10.0367Z" fill="#233A6B"/>
<path id="Vector_8" d="M15.086 55.8836V36.803H22.9926V39.9826H18.2486V44.7519H21.4113V47.9347H18.2486V52.704H22.9926V55.8836H15.086Z" fill="#233A6B"/>
<path id="Vector_9" d="M24.8792 55.8836V38.3928L26.4605 36.803H29.6264L31.2078 38.3928L32.7891 36.803H35.9517L37.5331 38.3928V55.8836H34.3704V39.9826H32.7956V55.8836H29.6264V39.9826H28.0418V55.8836H24.8792Z" fill="#233A6B"/>
<path id="Vector_10" d="M41.0139 55.8836L39.4326 54.2938V38.3928L41.0139 36.803H45.7579L47.3393 38.3928V54.2938L45.7579 55.8836H41.0139ZM44.1766 52.704V39.9728H42.5953V52.704H44.1766Z" fill="#233A6B"/>
<path id="Vector_11" d="M50.8072 55.8836L49.2258 54.2938V38.3928L50.8072 36.803H55.5544L57.1357 38.3928V43.1621H53.9698V39.9826H52.3885V52.7138H53.9698V49.5343H57.1487V54.3036L55.5674 55.8934L50.8072 55.8836Z" fill="#233A6B"/>
<path id="Vector_12" d="M59.019 55.8836V36.803H65.3476L66.9289 38.3928V44.7519L65.3476 46.3547L66.9289 47.9478V55.8966H63.7663V47.9347H62.185V55.8836H59.019ZM63.7663 44.7519V39.9826H62.185V44.7519H63.7663Z" fill="#233A6B"/>
<path id="Vector_13" d="M68.309 55.8836V38.3928L69.8903 36.803H74.6343L76.2156 38.3928V55.8836H73.0594V49.5245H71.4781V55.8836H68.309ZM73.0594 46.3547V39.9826H71.4781V46.3547H73.0594Z" fill="#233A6B"/>
<path id="Vector_14" d="M79.6835 55.8836L78.1022 54.2938V38.3928L79.6835 36.803H84.4243L86.0056 38.3928V43.1621H82.8429V39.9826H81.2583V52.7138H82.8429V49.5343H86.0056V54.3036L84.4243 55.8836H79.6835Z" fill="#233A6B"/>
<path id="Vector_15" d="M89.48 55.8836L87.8954 54.2938V49.5245H91.0613V52.704H92.6426V47.9347H89.48L87.8954 46.3547V36.803H91.0613V44.7519H92.6426V36.803H95.8053V54.2938L94.224 55.8836H89.48Z" fill="#233A6B"/>
<g id="Clip path group">
<mask id="mask0_6_76" style="mask-type:luminance" maskUnits="userSpaceOnUse" x="0" y="0" width="158" height="60">
<g id="clip-path">
<path id="Vector_16" d="M158 0H0V60H158V0Z" fill="white"/>
</g>
</mask>
<g mask="url(#mask0_6_76)">
<g id="Group">
<path id="Vector_17" d="M127.367 3.94341V3.9173H100.702V29.6409C100.702 29.7911 100.702 29.9445 100.702 30.0979C100.702 30.2514 100.702 30.4015 100.702 30.5549V30.7345C100.825 35.8541 102.439 40.825 105.345 45.0311C108.251 49.2371 112.321 52.4935 117.05 54.3966C121.779 56.2998 126.96 56.766 131.95 55.7375C136.94 54.7091 141.521 52.2311 145.124 48.6108C148.726 44.9905 151.193 40.387 152.219 35.3707C153.244 30.3543 152.783 25.1458 150.892 20.3905C149.002 15.6352 145.764 11.5421 141.582 8.61856C137.4 5.69501 132.456 4.06948 127.364 3.94341H127.367ZM126.718 43.0479C124.169 43.0472 121.678 42.2869 119.56 40.8631C117.441 39.4392 115.791 37.4158 114.816 35.0486C113.841 32.6815 113.587 30.077 114.085 27.5644C114.582 25.0519 115.81 22.7441 117.612 20.9331C119.415 19.122 121.711 17.8889 124.21 17.3897C126.71 16.8905 129.3 17.1477 131.654 18.1287C134.009 19.1097 136.02 20.7705 137.436 22.901C138.851 25.0315 139.606 27.536 139.605 30.0979C139.604 33.5328 138.247 36.8266 135.83 39.2551C133.414 41.6836 130.137 43.0479 126.721 43.0479H126.718Z" fill="#233A6B"/>
<path id="Vector_18" d="M131.325 36.9467L126.594 33.3232L121.701 36.7247L123.662 31.0805L118.934 27.4505L124.88 27.5843L126.851 21.9434L128.562 27.6692L134.511 27.8096L129.62 31.2176L131.325 36.9467Z" fill="#233A6B"/>
</g>
</g>
</g>
</g>
<defs>
<clipPath id="clip0_6_76">
<rect width="158" height="60" fill="white"/>
</clipPath>
</defs>
</svg>
