<svg width="158" height="59" viewBox="0 0 158 59" fill="none" xmlns="http://www.w3.org/2000/svg">
<g id="logo brands democracy white 1" clip-path="url(#clip0_6_53)">
<path id="Vector" d="M5.29276 34.6232V4.12805H15.586L18.1577 6.66717V16.8365L15.586 19.3756L18.1577 21.9179V32.1001L15.586 34.6232H5.29276ZM13.0046 16.8365V9.21271H10.4329V16.8365H13.0046ZM13.0046 29.5417V21.9179H10.4329V29.5321L13.0046 29.5417Z" fill="white"/>
<path id="Vector_2" d="M21.2067 34.6232V4.12805H31.4967L34.0684 6.66717V16.8365L31.4967 19.3756L34.0684 21.9179V34.6232H28.9186V21.9179H26.3501V34.6232H21.2067ZM28.9186 16.8365V9.21271H26.3501V16.8365H28.9186Z" fill="white"/>
<path id="Vector_3" d="M36.3024 34.6232V6.67041L38.8741 4.13129H46.586L49.1544 6.67041V34.6232H44.0143V24.4603H41.4426V34.6232H36.3024ZM44.0143 19.3756V9.21273H41.4426V19.3756H44.0143Z" fill="white"/>
<path id="Vector_4" d="M52.2197 34.6232V6.67041L54.7913 4.13129H62.5032L65.0716 6.67041V34.6232H59.9315V9.21273H57.3598V34.6232H52.2197Z" fill="white"/>
<path id="Vector_5" d="M68.1369 34.6232V4.12805H78.4171L80.9888 6.66717V32.1001L78.4171 34.6392L68.1369 34.6232ZM75.8487 29.5321V9.21271H73.277V29.5321H75.8487Z" fill="white"/>
<path id="Vector_6" d="M85.8108 34.6232L83.2391 32.1001V24.4603H88.3792V29.5321H90.9509V21.918H85.8108L83.2391 19.3756V6.67041L85.8108 4.13129H93.5161L96.0878 6.67041V14.2942H90.9509V9.21273H88.3792V16.8365H93.5161L96.0878 19.3756V32.1001L93.5161 34.6232H85.8108Z" fill="white"/>
<path id="Vector_7" d="M5.29276 54.9522V36.1896H11.6181L13.1994 37.7529V53.3889L11.6181 54.9522H5.29276ZM10.0367 51.8256V39.3066H8.44243V51.8256H10.0367Z" fill="white"/>
<path id="Vector_8" d="M15.086 54.9522V36.1896H22.9926V39.3162H18.2486V44.006H21.4113V47.1358H18.2486V51.8256H22.9926V54.9522H15.086Z" fill="white"/>
<path id="Vector_9" d="M24.8792 54.9522V37.7529L26.4605 36.1896H29.6264L31.2078 37.7529L32.7891 36.1896H35.9517L37.5331 37.7529V54.9522H34.3704V39.3162H32.7956V54.9522H29.6264V39.3162H28.0418V54.9522H24.8792Z" fill="white"/>
<path id="Vector_10" d="M41.0139 54.9522L39.4326 53.3889V37.7529L41.0139 36.1896H45.7579L47.3393 37.7529V53.3889L45.7579 54.9522H41.0139ZM44.1766 51.8256V39.3066H42.5953V51.8256H44.1766Z" fill="white"/>
<path id="Vector_11" d="M50.8072 54.9522L49.2258 53.3889V37.7529L50.8072 36.1896H55.5544L57.1357 37.7529V42.4427H53.9698V39.3162H52.3885V51.8352H53.9698V48.7087H57.1487V53.3985L55.5674 54.9618L50.8072 54.9522Z" fill="white"/>
<path id="Vector_12" d="M59.019 54.9522V36.1896H65.3476L66.9289 37.7529V44.006L65.3476 45.5821L66.9289 47.1486V54.965H63.7663V47.1358H62.185V54.9522H59.019ZM63.7663 44.006V39.3162H62.185V44.006H63.7663Z" fill="white"/>
<path id="Vector_13" d="M68.309 54.9522V37.7529L69.8903 36.1896H74.6343L76.2156 37.7529V54.9522H73.0594V48.6991H71.4781V54.9522H68.309ZM73.0594 45.5821V39.3162H71.4781V45.5821H73.0594Z" fill="white"/>
<path id="Vector_14" d="M79.6835 54.9522L78.1022 53.3889V37.7529L79.6835 36.1896H84.4243L86.0056 37.7529V42.4427H82.8429V39.3162H81.2583V51.8352H82.8429V48.7087H86.0056V53.3985L84.4243 54.9522H79.6835Z" fill="white"/>
<path id="Vector_15" d="M89.48 54.9522L87.8954 53.3889V48.6991H91.0613V51.8256H92.6426V47.1358H89.48L87.8954 45.5821V36.1896H91.0613V44.006H92.6426V36.1896H95.8053V53.3889L94.224 54.9522H89.48Z" fill="white"/>
<g id="Clip path group">
<mask id="mask0_6_53" style="mask-type:luminance" maskUnits="userSpaceOnUse" x="0" y="0" width="158" height="59">
<g id="clip-path">
<path id="Vector_16" d="M158 0H0V59H158V0Z" fill="white"/>
</g>
</mask>
<g mask="url(#mask0_6_53)">
<g id="Group">
<path id="Vector_17" d="M127.367 3.87767V3.85199H100.702V29.1469C100.702 29.2945 100.702 29.4454 100.702 29.5963C100.702 29.7471 100.702 29.8948 100.702 30.0457V30.2222C100.825 35.2566 102.439 40.1446 105.345 44.2805C108.251 48.4165 112.321 51.6186 117.05 53.49C121.779 55.3614 126.96 55.8199 131.95 54.8085C136.94 53.7972 141.521 51.3606 145.124 47.8006C148.726 44.2407 151.193 39.7138 152.219 34.7811C153.244 29.8484 152.783 24.7267 150.892 20.0506C149.002 15.3746 145.764 11.3497 141.582 8.4749C137.4 5.60008 132.456 4.00164 127.364 3.87767H127.367ZM126.718 42.3304C124.169 42.3298 121.678 41.5821 119.56 40.182C117.441 38.7819 115.79 36.7921 114.816 34.4645C113.841 32.1368 113.587 29.5757 114.085 27.105C114.582 24.6343 115.81 22.365 117.612 20.5841C119.415 18.8033 121.711 17.5907 124.21 17.0999C126.71 16.609 129.3 16.8619 131.654 17.8265C134.009 18.7912 136.02 20.4243 137.436 22.5193C138.851 24.6143 139.606 27.0771 139.605 29.5963C139.604 32.9739 138.247 36.2128 135.83 38.6008C133.414 40.9889 130.137 42.3304 126.721 42.3304H126.718Z" fill="white"/>
<path id="Vector_18" d="M131.325 36.3309L126.594 32.7678L121.701 36.1126L123.662 30.5625L118.934 26.993L124.88 27.1246L126.851 21.5777L128.562 27.2081L134.511 27.3461L129.62 30.6973L131.325 36.3309Z" fill="white"/>
</g>
</g>
</g>
</g>
<defs>
<clipPath id="clip0_6_53">
<rect width="158" height="59" fill="white"/>
</clipPath>
</defs>
</svg>
