<?xml version="1.0" encoding="utf-8"?>
<!-- Generator: Adobe Illustrator 23.0.3, SVG Export Plug-In . SVG Version: 6.00 Build 0)  -->
<svg version="1.1" id="Capa_1" xmlns="http://www.w3.org/2000/svg" xmlns:xlink="http://www.w3.org/1999/xlink" x="0px" y="0px"
	 viewBox="0 0 75 75" style="enable-background:new 0 0 75 75;" xml:space="preserve">
<style type="text/css">
	.st0{display:none;}
	.st1{display:inline;}
	.st2{opacity:0.5;fill:#FFFFFF;enable-background:new    ;}
	.st3{fill:#FFFFFF;}
	.st4{fill:#8F7F90;}
	.st5{fill:none;stroke:#A0AAB5;stroke-width:3;stroke-miterlimit:10;}
	.st6{fill:#A0AAB5;}
	.st7{opacity:0.5;fill:#A0AAB5;}
	.st8{fill:#BBAFB1;}
	.st9{fill:#644F6F;}
	.st10{fill:#75627F;}
	.st11{fill:#84758D;}
	.st12{fill:#A59BAC;}
	.st13{fill:#EAEAEA;}
	.st14{fill:#A0A7B2;}
	.st15{fill:#5A687C;}
	.st16{fill:#EDDBDB;}
</style>
<g class="st0">
	<g class="st1">
		<g id="Capa_3">
			<rect x="15.8" y="21.3" class="st2" width="42.8" height="24.5"/>
		</g>
		<g>
			<g id="_x38_1_x2C__Coding_x2C__Lcd_x2C__Programming_x2C__Screen">
				<g>
					<path class="st3" d="M38.4,48.8c-0.4-0.4-0.8-0.6-1.3-0.6s-0.9,0.2-1.3,0.5c-0.4,0.3-0.6,0.8-0.6,1.4c0,1,0.9,1.9,1.9,1.9
						c0.5,0,0.9-0.2,1.2-0.5c0.5-0.3,0.7-0.8,0.7-1.4C39,49.6,38.8,49.1,38.4,48.8z"/>
					<path class="st3" d="M30.6,57.8c-2,0-3.6-1.6-3.6-3.6v-0.7c0-0.7,0.6-1.2,1.2-1.2s1.2,0.6,1.2,1.2v0.7c0,0.6,0.4,1,1,1h2.4
						c0.7,0,1.2,0.6,1.2,1.2c0,0.8-0.5,1.3-1.2,1.3L30.6,57.8L30.6,57.8z"/>
					<path class="st3" d="M41.1,57.8c-0.7,0-1.2-0.6-1.2-1.2c0-0.7,0.6-1.2,1.2-1.2h2.4c0.6,0,1-0.4,1-1v-0.7c0-0.7,0.6-1.2,1.2-1.2
						c0.7,0,1.2,0.6,1.2,1.2v0.7c0.1,0.8-0.3,1.7-0.9,2.4c-0.7,0.7-1.6,1.1-2.6,1.1L41.1,57.8L41.1,57.8z"/>
					<path class="st3" d="M41.2,62.4c-0.7,0-1.2-0.6-1.2-1.2v-3.4h-5.6v3.4c0,0.7-0.6,1.2-1.2,1.2c-0.7,0-1.2-0.6-1.2-1.2v-4.7
						c0-0.7,0.6-1.2,1.2-1.2h8.2c0.7,0,1.2,0.6,1.2,1.2v4.8v0.1C42.4,61.9,41.8,62.4,41.2,62.4z"/>
					<path class="st3" d="M28.1,65.3c-1.5,0-2.7-1.3-2.7-2.7c0-0.7,0.3-1.4,0.8-1.9s1.2-0.8,1.9-0.8h18.1c1.5,0,2.7,1.2,2.7,2.7
						c0,0.7-0.3,1.4-0.8,1.9s-1.1,0.8-1.9,0.8H28.1z M28.1,62.4c-0.1,0-0.1,0-0.2,0.1s-0.1,0.1-0.1,0.2c0,0.1,0.1,0.2,0.2,0.2h18.1
						c0.1,0,0.1,0,0.2-0.1c0.1-0.1,0.1-0.1,0.1-0.2c0-0.1-0.1-0.2-0.2-0.2H28.1z"/>
					<path class="st3" d="M58.3,20.4H16c-0.6,0-1.2,0.6-1.2,1.2V46c0,0.6,0.6,1.2,1.2,1.2h42.3c0.6,0,1.2-0.6,1.2-1.2V21.6
						C59.5,20.9,58.9,20.4,58.3,20.4z M17.2,44.7v-22h39.9v22H17.2z"/>
					<path class="st3" d="M59.1,16.2H15.2c-2.7,0-5,2.2-5,5V50c0,2.7,2.2,5,5,5h43.9c2.7,0,5-2.2,5-5V21.1
						C64,18.4,61.8,16.2,59.1,16.2z M12.7,21.1c0-1.4,1.1-2.5,2.5-2.5h43.9c1.4,0,2.5,1.1,2.5,2.5v28.8c0,1.4-1.1,2.5-2.5,2.5H15.2
						c-1.4,0-2.5-1.1-2.5-2.5V21.1z"/>
				</g>
			</g>
			<g id="Layer_1_00000082364432329138780700000014219443699670640547_">
			</g>
		</g>
		<g>
			<g id="XMLID_9251_">
				<path id="XMLID_9252_" class="st3" d="M33.1,33.9h-3c-0.3,0-0.6-0.3-0.6-0.6s0.3-0.6,0.6-0.6h3c0.3,0,0.6,0.3,0.6,0.6
					S33.4,33.9,33.1,33.9z"/>
			</g>
			<g id="XMLID_9253_">
				<path id="XMLID_9254_" class="st3" d="M43.9,33.9h-8.5c-0.3,0-0.6-0.3-0.6-0.6s0.3-0.6,0.6-0.6h8.5c0.3,0,0.6,0.3,0.6,0.6
					S44.2,33.9,43.9,33.9z"/>
			</g>
			<g id="XMLID_9255_">
				<path id="XMLID_9256_" class="st3" d="M35.5,37h-5.4c-0.3,0-0.6-0.3-0.6-0.6s0.3-0.6,0.6-0.6h5.4c0.3,0,0.6,0.3,0.6,0.6
					S35.8,37,35.5,37z"/>
			</g>
			<g id="XMLID_9257_">
				<path id="XMLID_9258_" class="st3" d="M39.1,37h-1.3c-0.3,0-0.6-0.3-0.6-0.6s0.3-0.6,0.6-0.6h1.3c0.3,0,0.6,0.3,0.6,0.6
					C39.7,36.7,39.4,37,39.1,37z"/>
			</g>
			<g id="XMLID_9259_">
				<path id="XMLID_9260_" class="st3" d="M43.3,37h-1.8c-0.3,0-0.6-0.3-0.6-0.6s0.3-0.6,0.6-0.6h1.8c0.3,0,0.6,0.3,0.6,0.6
					C43.9,36.7,43.6,37,43.3,37z"/>
			</g>
			<g id="XMLID_9261_">
				<path id="XMLID_9262_" class="st3" d="M31.9,40H30c-0.3,0-0.6-0.3-0.6-0.6s0.3-0.6,0.6-0.6h1.8c0.3,0,0.6,0.3,0.6,0.6
					C32.5,39.7,32.2,40,31.9,40z"/>
			</g>
			<g id="XMLID_9263_">
				<path id="XMLID_9264_" class="st3" d="M38.5,40h-4.2c-0.3,0-0.6-0.3-0.6-0.6s0.3-0.6,0.6-0.6h4.2c0.3,0,0.6,0.3,0.6,0.6
					S38.8,40,38.5,40z"/>
			</g>
			<g id="XMLID_9265_">
				<path id="XMLID_9266_" class="st3" d="M43.3,40h-2.4c-0.3,0-0.6-0.3-0.6-0.6s0.3-0.6,0.6-0.6h2.4c0.3,0,0.6,0.3,0.6,0.6
					C43.9,39.7,43.6,40,43.3,40z"/>
			</g>
			<g id="XMLID_9267_">
				<path id="XMLID_9268_" class="st3" d="M32.5,43H30c-0.3,0-0.6-0.3-0.6-0.6s0.3-0.6,0.6-0.6h2.4c0.3,0,0.6,0.3,0.6,0.6
					S32.8,43,32.5,43z"/>
			</g>
			<g id="XMLID_9269_">
				<path id="XMLID_9270_" class="st3" d="M40.4,43H35c-0.3,0-0.6-0.3-0.6-0.6s0.3-0.6,0.6-0.6h5.4c0.3,0,0.6,0.3,0.6,0.6
					C40.9,42.7,40.6,43,40.4,43z"/>
			</g>
			<g id="XMLID_9271_">
				<path id="XMLID_9272_" class="st3" d="M33,30.4c-0.1,0-0.3,0-0.4-0.1l-3-2.4c-0.1-0.1-0.2-0.3-0.2-0.5s0.1-0.4,0.2-0.5l3-2.4
					c0.3-0.2,0.7-0.2,0.9,0.1c0.2,0.3,0.2,0.7-0.1,0.9L31,27.4l2.4,1.9c0.3,0.2,0.3,0.6,0.1,0.9C33.4,30.3,33.2,30.4,33,30.4z"/>
			</g>
			<g id="XMLID_9273_">
				<path id="XMLID_9274_" class="st3" d="M40.4,30.4c-0.2,0-0.4-0.1-0.5-0.2c-0.2-0.3-0.2-0.7,0.1-0.9l2.4-1.9L40,25.5
					c-0.3-0.2-0.3-0.6-0.1-0.9s0.6-0.3,0.9-0.1l3,2.4c0.1,0.1,0.2,0.3,0.2,0.5s-0.1,0.4-0.2,0.5l-3,2.4
					C40.5,30.3,40.4,30.4,40.4,30.4z"/>
			</g>
			<g id="XMLID_9275_">
				<path id="XMLID_9276_" class="st3" d="M35.4,29.8c-0.1,0-0.2,0-0.3-0.1c-0.3-0.2-0.4-0.6-0.2-0.9l2.4-4.2
					c0.2-0.3,0.6-0.4,0.9-0.2c0.3,0.2,0.4,0.6,0.2,0.9L36,29.5C35.9,29.6,35.7,29.8,35.4,29.8z"/>
			</g>
		</g>
		<path class="st3" d="M49.4,9.4c0.7,0,1.2,0.5,1.2,1.2s-0.5,1.2-1.2,1.2s-1.2-0.5-1.2-1.2S48.7,9.4,49.4,9.4z"/>
		<path class="st3" d="M35.5,5.7c0.7,0,1.2,0.5,1.2,1.2s-0.5,1.2-1.2,1.2s-1.2-0.5-1.2-1.2S34.8,5.7,35.5,5.7z"/>
		<path class="st3" d="M20.7,11.4c0.7,0,1.2,0.5,1.2,1.2s-0.5,1.2-1.2,1.2s-1.2-0.5-1.2-1.2S20,11.4,20.7,11.4z"/>
		<path class="st3" d="M21.9,57.1c0.7,0,1.2,0.5,1.2,1.2s-0.5,1.2-1.2,1.2s-1.2-0.5-1.2-1.2C20.7,57.6,21.2,57.1,21.9,57.1z"/>
	</g>
</g>
<g id="Capa_6" class="st0">
	<g class="st1">
		<rect x="2.3" y="2.6" class="st4" width="69.8" height="69.8"/>
	</g>
</g>
<g id="Capa_7">
	
		<image style="overflow:visible;enable-background:new    ;" width="1484" height="1094" xlink:href="../../../Screenshot 2024-07-06 at 12.52.43.png"  transform="matrix(0.1289 0 0 0.1289 -215.6794 -2.1125)">
	</image>
</g>
<g id="guias">
</g>
<g id="Capa_5">
</g>
<g id="Capa_8">
	<g>
		<g>
			<g id="_x38_1_x2C__Coding_x2C__Lcd_x2C__Programming_x2C__Screen_1_">
				<g>
					<path id="XMLID_9220_" class="st5" d="M32.4,53.5h9.8c0,0-0.2,4,0.3,5.4c0.3,0.9,2.1,3.3,3,4.5c0.2,0.3,0,0.7-0.3,0.7H29.3
						c-0.3,0-0.5-0.4-0.3-0.7c0.9-1.2,2.6-3.6,2.9-4.5C32.5,57.5,32.4,53.5,32.4,53.5z"/>
					<path class="st6" d="M37.3,50.9c-1,0-1.9-0.9-1.9-1.9c0-0.6,0.2-1.1,0.7-1.4c0.3-0.3,0.7-0.5,1.2-0.5s0.9,0.2,1.3,0.6
						c0.4,0.4,0.6,0.8,0.6,1.3c0,0.2,0,0.9-0.7,1.4C38.2,50.7,37.7,50.9,37.3,50.9z"/>
					<rect x="14.4" y="17.5" class="st7" width="45.6" height="26.6"/>
					<g id="XMLID_9243_">
						<path class="st6" d="M14.2,46c-0.8,0-1.6-0.7-1.6-1.6V17.6c0-0.8,0.7-1.6,1.6-1.6h46.3c0.8,0,1.6,0.7,1.6,1.6v26.8
							c0,0.8-0.7,1.6-1.6,1.6H14.2z M58.9,42.7V19.2H15.8v23.5H58.9z"/>
					</g>
					<g id="XMLID_9247_">
						<path class="st6" d="M13,54.8c-3.3,0-6-2.7-6-6V17c0-3.3,2.7-6,6-6h48.5c3.3,0,6,2.7,6,6v31.8c0,3.3-2.7,6-6,6H13z M13,14.8
							c-1.3,0-2.3,1-2.3,2.3v31.8c0,1.3,1,2.3,2.3,2.3h48.5c1.3,0,2.3-1,2.3-2.3V17c0-1.3-1-2.3-2.3-2.3H13V14.8z"/>
					</g>
				</g>
			</g>
			<g id="Layer_1_1_">
			</g>
		</g>
	</g>
	<rect x="-202.5" y="-82.8" class="st8" width="16.6" height="73.1"/>
	<rect x="-185.9" y="-82.8" class="st4" width="16.6" height="73.1"/>
	<rect x="-169.3" y="-82.8" class="st9" width="16.6" height="73.1"/>
	<rect x="-152.7" y="-82.8" class="st10" width="16.6" height="73.1"/>
	<rect x="-136.1" y="-82.8" class="st11" width="16.6" height="73.1"/>
	<rect x="-119.5" y="-82.8" class="st12" width="16.6" height="73.1"/>
	<rect x="-102.9" y="-82.8" class="st13" width="16.6" height="73.1"/>
	<rect x="-86.3" y="-82.8" class="st14" width="16.6" height="73.1"/>
	<rect x="-69.7" y="-82.8" class="st15" width="16.6" height="73.1"/>
	<rect x="-53.1" y="-82.8" class="st16" width="16.6" height="73.1"/>
	<text transform="matrix(1 0 0 1 -199.2109 -4.7832)" style="font-family:'ArialMT'; font-size:1.9929px;">Exported from Coolors.co</text>
	<text transform="matrix(1 0 0 1 -125.9775 -4.7832)" style="font-family:'ArialMT'; font-size:1.9929px;">https://coolors.co/c2b2b4-978093-6b4e71-7c6281-8c7690-ac9daf-ececec-a0aab5-53687e-f5dddd</text>
	<g>
		<g id="XMLID_25_">
			<path class="st14" d="M31.2,31.4c-0.6,0-1.1-0.5-1.1-1.1s0.5-1.1,1.1-1.1h3c0.6,0,1.1,0.5,1.1,1.1s-0.5,1.1-1.1,1.1H31.2z"/>
		</g>
		<g id="XMLID_23_">
			<path class="st14" d="M36.5,31.4c-0.6,0-1.1-0.5-1.1-1.1s0.5-1.1,1.1-1.1H45c0.6,0,1.1,0.5,1.1,1.1s-0.5,1.1-1.1,1.1H36.5z"/>
		</g>
		<g id="XMLID_21_">
			<path class="st14" d="M31.2,34.5c-0.6,0-1.1-0.5-1.1-1.1s0.5-1.1,1.1-1.1h5.4c0.6,0,1.1,0.5,1.1,1.1s-0.5,1.1-1.1,1.1H31.2z"/>
		</g>
		<g id="XMLID_19_">
			<path class="st14" d="M38.9,34.5c-0.6,0-1.1-0.5-1.1-1.1s0.5-1.1,1.1-1.1h1.3c0.6,0,1.1,0.5,1.1,1.1s-0.5,1.1-1.1,1.1H38.9z"/>
		</g>
		<g id="XMLID_17_">
			<path class="st14" d="M42.6,34.5c-0.6,0-1.1-0.5-1.1-1.1s0.5-1.1,1.1-1.1h1.8c0.6,0,1.1,0.5,1.1,1.1s-0.5,1.1-1.1,1.1H42.6z"/>
		</g>
		<g id="XMLID_15_">
			<path class="st14" d="M31.1,37.5c-0.6,0-1.1-0.5-1.1-1.1s0.5-1.1,1.1-1.1h1.8c0.6,0,1.1,0.5,1.1,1.1s-0.5,1.1-1.1,1.1H31.1z"/>
		</g>
		<g id="XMLID_13_">
			<path class="st14" d="M35.4,37.5c-0.6,0-1.1-0.5-1.1-1.1s0.5-1.1,1.1-1.1h4.2c0.6,0,1.1,0.5,1.1,1.1s-0.5,1.1-1.1,1.1H35.4z"/>
		</g>
		<g id="XMLID_11_">
			<path class="st14" d="M42,37.5c-0.6,0-1.1-0.5-1.1-1.1s0.5-1.1,1.1-1.1h2.4c0.6,0,1.1,0.5,1.1,1.1s-0.5,1.1-1.1,1.1H42z"/>
		</g>
		<g id="XMLID_9_">
			<path class="st14" d="M31.1,40.4c-0.6,0-1.1-0.5-1.1-1.1s0.5-1.1,1.1-1.1h2.4c0.6,0,1.1,0.5,1.1,1.1s-0.5,1.1-1.1,1.1H31.1z"/>
		</g>
		<g id="XMLID_7_">
			<path class="st14" d="M36,40.4c-0.6,0-1.1-0.5-1.1-1.1s0.5-1.1,1.1-1.1h5.4c0.6,0,1.1,0.5,1.1,1.1s-0.5,1.1-1.1,1.1H36z"/>
		</g>
		<g id="XMLID_5_">
			<path class="st14" d="M34.1,27.8c-0.1,0-0.5,0-0.7-0.2l-2.9-2.4C30.2,25,30,24.6,30,24.3c0-0.3,0.1-0.6,0.3-0.8l3-2.4
				c0.2-0.2,0.5-0.2,0.7-0.2c0.4,0,0.7,0.2,0.9,0.5s0.3,0.6,0.2,0.9s-0.2,0.5-0.4,0.6l-1.9,1.5l1.9,1.5c0.2,0.2,0.4,0.4,0.4,0.8
				c0,0.3-0.1,0.5-0.2,0.8C34.7,27.7,34.4,27.8,34.1,27.8z"/>
		</g>
		<g id="XMLID_3_">
			<path class="st14" d="M41.4,27.8c-0.3,0-0.6-0.1-0.8-0.3c-0.4-0.6-0.3-1.3,0.2-1.6l1.9-1.5l-1.9-1.5c-0.5-0.3-0.6-1-0.2-1.5
				c0.2-0.3,0.5-0.5,0.9-0.5c0.2,0,0.5,0.1,0.7,0.2l3,2.4c0.2,0.2,0.4,0.6,0.4,0.9s-0.1,0.6-0.3,0.8L42,27.7h-0.2
				C41.7,27.8,41.6,27.8,41.4,27.8z"/>
		</g>
		<g id="XMLID_1_">
			<path class="st14" d="M36.5,27.3c-0.1,0-0.4,0-0.6-0.2c-0.2-0.1-0.4-0.4-0.4-0.7c-0.1-0.3,0-0.6,0.2-0.8l2.4-4.2
				c0.2-0.4,0.6-0.5,1-0.5c0.2,0,0.4,0.1,0.6,0.2c0.5,0.3,0.7,1,0.3,1.6L37.6,27l0,0C37.3,26.9,37,27.3,36.5,27.3z"/>
		</g>
	</g>
</g>
</svg>
