<?xml version="1.0" encoding="utf-8"?>
<!-- Generator: Adobe Illustrator 23.0.3, SVG Export Plug-In . SVG Version: 6.00 Build 0)  -->
<svg version="1.1" xmlns="http://www.w3.org/2000/svg" xmlns:xlink="http://www.w3.org/1999/xlink" x="0px" y="0px"
	 viewBox="0 0 75 75" style="enable-background:new 0 0 75 75;" xml:space="preserve">
<style type="text/css">
	.st0{display:none;}
	.st1{display:inline;}
	.st2{opacity:0.5;fill:#FFFFFF;}
	.st3{fill:#FFFFFF;}
	.st4{display:inline;fill:#FFFFFF;}
	.st5{fill:#BCB0B2;}
	.st6{opacity:0.5;fill:#6B4E71;}
	.st7{fill:#6B4E71;}
	.st8{fill:#F5DDDD;}
</style>
<g id="Capa_1" class="st0">
	<g id="Capa_2">
		<g id="Capa_3" class="st1">
			<rect x="15.8" y="21.3" class="st2" width="42.8" height="24.5"/>
		</g>
		<g class="st1">
			<g id="_x38_1_x2C__Coding_x2C__Lcd_x2C__Programming_x2C__Screen">
				<g>
					<path class="st3" d="M38.4,48.8c-0.4-0.4-0.8-0.6-1.3-0.6c-0.5,0-0.9,0.2-1.3,0.5c-0.4,0.3-0.6,0.8-0.6,1.4
						c0,1,0.9,1.9,1.9,1.9c0.5,0,0.9-0.2,1.2-0.5c0.5-0.3,0.7-0.8,0.7-1.4C39,49.6,38.8,49.1,38.4,48.8z"/>
					<path class="st3" d="M30.6,57.8c-2,0-3.6-1.6-3.6-3.6v-0.7c0-0.7,0.6-1.2,1.2-1.2s1.2,0.6,1.2,1.2v0.7c0,0.6,0.4,1,1,1h2.4
						c0.7,0,1.2,0.6,1.2,1.2c0,0.8-0.5,1.3-1.2,1.3H30.6z"/>
					<path class="st3" d="M41.1,57.8c-0.7,0-1.2-0.6-1.2-1.2c0-0.7,0.6-1.2,1.2-1.2h2.4c0.6,0,1-0.4,1-1v-0.7c0-0.7,0.6-1.2,1.2-1.2
						c0.7,0,1.2,0.6,1.2,1.2v0.7c0.1,0.8-0.3,1.7-0.9,2.4c-0.7,0.7-1.6,1.1-2.6,1.1H41.1z"/>
					<path class="st3" d="M41.2,62.4c-0.7,0-1.2-0.6-1.2-1.2v-3.4h-5.6v3.4c0,0.7-0.6,1.2-1.2,1.2c-0.7,0-1.2-0.6-1.2-1.2v-4.7
						c0-0.7,0.6-1.2,1.2-1.2h8.2c0.7,0,1.2,0.6,1.2,1.2v4.8l0,0.1C42.4,61.9,41.8,62.4,41.2,62.4z"/>
					<path class="st3" d="M28.1,65.3c-1.5,0-2.7-1.3-2.7-2.7c0-0.7,0.3-1.4,0.8-1.9c0.5-0.5,1.2-0.8,1.9-0.8h18.1
						c1.5,0,2.7,1.2,2.7,2.7c0,0.7-0.3,1.4-0.8,1.9c-0.5,0.5-1.1,0.8-1.9,0.8H28.1z M28.1,62.4c-0.1,0-0.1,0-0.2,0.1
						c-0.1,0.1-0.1,0.1-0.1,0.2c0,0.1,0.1,0.2,0.2,0.2h18.1c0.1,0,0.1,0,0.2-0.1c0.1-0.1,0.1-0.1,0.1-0.2c0-0.1-0.1-0.2-0.2-0.2
						H28.1z"/>
					<path class="st3" d="M58.3,20.4H16c-0.6,0-1.2,0.6-1.2,1.2V46c0,0.6,0.6,1.2,1.2,1.2h42.3c0.6,0,1.2-0.6,1.2-1.2V21.6
						C59.5,20.9,58.9,20.4,58.3,20.4z M17.2,44.7v-22h39.9v22H17.2z"/>
					<path class="st3" d="M59.1,16.2H15.2c-2.7,0-5,2.2-5,5v28.8c0,2.7,2.2,5,5,5h43.9c2.7,0,5-2.2,5-5V21.1
						C64,18.4,61.8,16.2,59.1,16.2z M12.7,21.1c0-1.4,1.1-2.5,2.5-2.5h43.9c1.4,0,2.5,1.1,2.5,2.5v28.8c0,1.4-1.1,2.5-2.5,2.5H15.2
						c-1.4,0-2.5-1.1-2.5-2.5V21.1z"/>
				</g>
			</g>
			<g id="Layer_1_00000082364432329138780700000014219443699670640547_">
			</g>
		</g>
		<g class="st1">
			<g id="XMLID_9251_">
				<path id="XMLID_9252_" class="st3" d="M33.1,33.9h-3c-0.3,0-0.6-0.3-0.6-0.6s0.3-0.6,0.6-0.6h3c0.3,0,0.6,0.3,0.6,0.6
					S33.4,33.9,33.1,33.9z"/>
			</g>
			<g id="XMLID_9253_">
				<path id="XMLID_9254_" class="st3" d="M43.9,33.9h-8.5c-0.3,0-0.6-0.3-0.6-0.6s0.3-0.6,0.6-0.6h8.5c0.3,0,0.6,0.3,0.6,0.6
					S44.2,33.9,43.9,33.9z"/>
			</g>
			<g id="XMLID_9255_">
				<path id="XMLID_9256_" class="st3" d="M35.5,37h-5.4c-0.3,0-0.6-0.3-0.6-0.6c0-0.3,0.3-0.6,0.6-0.6h5.4c0.3,0,0.6,0.3,0.6,0.6
					C36.1,36.7,35.8,37,35.5,37z"/>
			</g>
			<g id="XMLID_9257_">
				<path id="XMLID_9258_" class="st3" d="M39.1,37h-1.3c-0.3,0-0.6-0.3-0.6-0.6c0-0.3,0.3-0.6,0.6-0.6h1.3c0.3,0,0.6,0.3,0.6,0.6
					C39.7,36.7,39.4,37,39.1,37z"/>
			</g>
			<g id="XMLID_9259_">
				<path id="XMLID_9260_" class="st3" d="M43.3,37h-1.8c-0.3,0-0.6-0.3-0.6-0.6c0-0.3,0.3-0.6,0.6-0.6h1.8c0.3,0,0.6,0.3,0.6,0.6
					C43.9,36.7,43.6,37,43.3,37z"/>
			</g>
			<g id="XMLID_9261_">
				<path id="XMLID_9262_" class="st3" d="M31.9,40H30c-0.3,0-0.6-0.3-0.6-0.6c0-0.3,0.3-0.6,0.6-0.6h1.8c0.3,0,0.6,0.3,0.6,0.6
					C32.5,39.7,32.2,40,31.9,40z"/>
			</g>
			<g id="XMLID_9263_">
				<path id="XMLID_9264_" class="st3" d="M38.5,40h-4.2c-0.3,0-0.6-0.3-0.6-0.6c0-0.3,0.3-0.6,0.6-0.6h4.2c0.3,0,0.6,0.3,0.6,0.6
					C39.1,39.7,38.8,40,38.5,40z"/>
			</g>
			<g id="XMLID_9265_">
				<path id="XMLID_9266_" class="st3" d="M43.3,40h-2.4c-0.3,0-0.6-0.3-0.6-0.6c0-0.3,0.3-0.6,0.6-0.6h2.4c0.3,0,0.6,0.3,0.6,0.6
					C43.9,39.7,43.6,40,43.3,40z"/>
			</g>
			<g id="XMLID_9267_">
				<path id="XMLID_9268_" class="st3" d="M32.5,43H30c-0.3,0-0.6-0.3-0.6-0.6c0-0.3,0.3-0.6,0.6-0.6h2.4c0.3,0,0.6,0.3,0.6,0.6
					C33,42.7,32.8,43,32.5,43z"/>
			</g>
			<g id="XMLID_9269_">
				<path id="XMLID_9270_" class="st3" d="M40.4,43H35c-0.3,0-0.6-0.3-0.6-0.6c0-0.3,0.3-0.6,0.6-0.6h5.4c0.3,0,0.6,0.3,0.6,0.6
					C40.9,42.7,40.6,43,40.4,43z"/>
			</g>
			<g id="XMLID_9271_">
				<path id="XMLID_9272_" class="st3" d="M33,30.4c-0.1,0-0.3,0-0.4-0.1l-3-2.4c-0.1-0.1-0.2-0.3-0.2-0.5c0-0.2,0.1-0.4,0.2-0.5
					l3-2.4c0.3-0.2,0.7-0.2,0.9,0.1c0.2,0.3,0.2,0.7-0.1,0.9L31,27.4l2.4,1.9c0.3,0.2,0.3,0.6,0.1,0.9C33.4,30.3,33.2,30.4,33,30.4z
					"/>
			</g>
			<g id="XMLID_9273_">
				<path id="XMLID_9274_" class="st3" d="M40.4,30.4c-0.2,0-0.4-0.1-0.5-0.2c-0.2-0.3-0.2-0.7,0.1-0.9l2.4-1.9L40,25.5
					c-0.3-0.2-0.3-0.6-0.1-0.9c0.2-0.3,0.6-0.3,0.9-0.1l3,2.4c0.1,0.1,0.2,0.3,0.2,0.5c0,0.2-0.1,0.4-0.2,0.5l-3,2.4
					C40.5,30.3,40.4,30.4,40.4,30.4z"/>
			</g>
			<g id="XMLID_9275_">
				<path id="XMLID_9276_" class="st3" d="M35.4,29.8c-0.1,0-0.2,0-0.3-0.1c-0.3-0.2-0.4-0.6-0.2-0.9l2.4-4.2
					c0.2-0.3,0.6-0.4,0.9-0.2c0.3,0.2,0.4,0.6,0.2,0.9L36,29.5C35.9,29.6,35.7,29.8,35.4,29.8z"/>
			</g>
		</g>
		<path class="st4" d="M49.4,9.4c0.7,0,1.2,0.5,1.2,1.2c0,0.7-0.5,1.2-1.2,1.2c-0.7,0-1.2-0.5-1.2-1.2C48.2,9.9,48.7,9.4,49.4,9.4z"
			/>
		<path class="st4" d="M35.5,5.7c0.7,0,1.2,0.5,1.2,1.2c0,0.7-0.5,1.2-1.2,1.2c-0.7,0-1.2-0.5-1.2-1.2C34.3,6.2,34.8,5.7,35.5,5.7z"
			/>
		<path class="st4" d="M20.7,11.4c0.7,0,1.2,0.5,1.2,1.2c0,0.7-0.5,1.2-1.2,1.2c-0.7,0-1.2-0.5-1.2-1.2C19.5,11.9,20,11.4,20.7,11.4
			z"/>
		<path class="st4" d="M21.9,57.1c0.7,0,1.2,0.5,1.2,1.2c0,0.7-0.5,1.2-1.2,1.2c-0.7,0-1.2-0.5-1.2-1.2
			C20.7,57.6,21.2,57.1,21.9,57.1z"/>
	</g>
</g>
<g id="Capa_6" class="st0">
	<g class="st1">
		<rect x="2.3" y="2.6" class="st5" width="69.8" height="69.8"/>
	</g>
</g>
<g id="Capa_7">
	
		<image style="overflow:visible;" width="1484" height="1094" xlink:href="../../../Screenshot 2024-07-06 at 12.52.43.png"  transform="matrix(0.1289 0 0 0.1289 -218.5418 -3.984)">
	</image>
</g>
<g id="guias">
</g>
<g id="Capa_5">
	<g>
		<rect x="16.8" y="26.5" class="st6" width="41.2" height="30.2"/>
		<path class="st7" d="M59.8,63.5H14.4c-2,0-3.9-0.8-5.3-2.2c-1.4-1.4-2.2-3.3-2.2-5.3c0-0.7,0.6-1.3,1.3-1.3h3.7
			c0.7,0,1.3,0.6,1.3,1.3c0,0.7-0.6,1.3-1.3,1.3H9.6c0.2,0.9,0.7,1.6,1.3,2.3c0.9,0.9,2.2,1.5,3.5,1.5h45.4c2.3,0,4.3-1.6,4.8-3.8
			h-2.3c-0.7,0-1.3-0.6-1.3-1.3c0-0.7,0.6-1.3,1.3-1.3h3.8c0.7,0,1.3,0.6,1.3,1.3C67.4,60.1,64,63.5,59.8,63.5z"/>
		<path class="st7" d="M42.2,59.7H32.1c-0.5,0-0.9-0.3-1.1-0.7l-0.9-1.8H16.9c-0.7,0-1.3-0.6-1.3-1.3c0-0.7,0.6-1.2,1.3-1.2h13.9
			c0.5,0,0.9,0.3,1.1,0.7l0.9,1.8h8.6l0.9-1.8c0.2-0.4,0.6-0.7,1.1-0.7h13.8c0.7,0,1.3,0.6,1.3,1.3c0,0.7-0.6,1.3-1.3,1.3H44.2
			l-0.9,1.8C43.1,59.4,42.7,59.7,42.2,59.7z"/>
		<path class="st7" d="M62.4,57.1h-5c-0.7,0-1.3-0.6-1.3-1.3V28.2h0.1c-0.7,0-1.3-0.6-1.3-1.3c0-0.7,0.6-1.3,1.3-1.3h1.2
			c0.7,0,1.3,0.6,1.3,1.3v27.8h2.5V25.3c0-1.2-1-2.3-2.3-2.3h-1.4c-0.7,0-1.3-0.6-1.3-1.3c0-0.7,0.6-1.3,1.3-1.3h1.4
			c2.6,0,4.8,2.1,4.8,4.8v30.6C63.7,56.5,63.1,57.1,62.4,57.1z"/>
		<path class="st7" d="M16.9,57.1h-5c-0.7,0-1.3-0.6-1.3-1.3V25.3c0-2.6,2.1-4.8,4.8-4.8h6.1c0.7,0,1.3,0.6,1.3,1.3
			c0,0.7-0.6,1.3-1.3,1.3h-6.1c-1.2,0-2.3,1-2.3,2.3v29.3h2.5V26.9c0-0.7,0.6-1.3,1.3-1.3h4.4c0.7,0,1.3,0.6,1.3,1.3
			c0,0.7-0.6,1.3-1.3,1.3h-3.2v27.8C18.2,56.5,17.6,57.1,16.9,57.1z"/>
		<path class="st8" d="M44.8,28.2H41c-0.7,0-1.3-0.6-1.3-1.3c0-0.7,0.6-1.3,1.3-1.3h3.8c0.7,0,1.3,0.6,1.3,1.3
			C46.1,27.6,45.4,28.2,44.8,28.2z"/>
		<path class="st7" d="M49,23.1H29.3c-0.7,0-1.3-0.6-1.3-1.3c0-0.7,0.6-1.3,1.3-1.3H49c0.7,0,1.3,0.6,1.3,1.3
			C50.4,22.5,49.7,23.1,49,23.1z"/>
		<path class="st7" d="M51,49.6H32.2c-0.7,0-1.3-0.6-1.3-1.3c0-0.7,0.6-1.3,1.3-1.3H51c0.7,0,1.3,0.6,1.3,1.3
			C52.3,49,51.7,49.6,51,49.6z"/>
		<path class="st7" d="M41,53.4h-7.6c-0.7,0-1.3-0.6-1.3-1.3c0-0.7,0.6-1.3,1.3-1.3H41c0.7,0,1.3,0.6,1.3,1.3
			C42.2,52.8,41.6,53.4,41,53.4z"/>
	</g>
	<path class="st7" d="M60.1,13.7c0-3.8-3.1-7-7-7s-7,3.1-7,7c0,3.2,2.2,6,5.2,6.7v3.7c0,1-0.8,1.7-1.7,1.7H28.8
		c-0.6,0-1.2,0.1-1.7,0.3v-5.7c3-0.8,5.2-3.5,5.2-6.7c0-3.8-3.1-7-7-7s-7,3.1-7,7c0,3.2,2.2,6,5.2,6.7v14.4c-3,0.8-5.2,3.5-5.2,6.7
		c0,3.8,3.1,7,7,7s7-3.1,7-7c0-3.2-2.2-6-5.2-6.7v-3.7c0-1,0.8-1.7,1.7-1.7h20.9c2.9,0,5.2-2.3,5.2-5.2v-3.7
		C57.9,19.6,60.1,16.9,60.1,13.7L60.1,13.7z M21.8,13.7c0-1.9,1.6-3.5,3.5-3.5s3.5,1.6,3.5,3.5s-1.6,3.5-3.5,3.5
		S21.8,15.6,21.8,13.7z M28.8,41.5c0,1.9-1.6,3.5-3.5,3.5s-3.5-1.6-3.5-3.5c0-1.9,1.6-3.5,3.5-3.5S28.8,39.6,28.8,41.5z M53.2,17.1
		c-1.9,0-3.5-1.6-3.5-3.5s1.6-3.5,3.5-3.5c1.9,0,3.5,1.6,3.5,3.5S55.1,17.1,53.2,17.1z"/>
</g>
</svg>
