<?xml version="1.0" encoding="utf-8"?>
<!-- Generator: Adobe Illustrator 23.0.3, SVG Export Plug-In . SVG Version: 6.00 Build 0)  -->
<svg version="1.1" xmlns="http://www.w3.org/2000/svg" xmlns:xlink="http://www.w3.org/1999/xlink" x="0px" y="0px"
	 viewBox="0 0 75 75" style="enable-background:new 0 0 75 75;" xml:space="preserve">
<style type="text/css">
	.st0{display:none;}
	.st1{display:inline;}
	.st2{opacity:0.5;fill:#FFFFFF;}
	.st3{fill:#FFFFFF;}
	.st4{display:inline;fill:#FFFFFF;}
	.st5{fill:#BCB0B2;}
	.st6{opacity:0.5;fill:#F5DDDD;}
	.st7{fill:#F5DDDD;}
</style>
<g id="Capa_1" class="st0">
	<g id="Capa_2">
		<g id="Capa_3" class="st1">
			<rect x="15.8" y="21.3" class="st2" width="42.8" height="24.5"/>
		</g>
		<g class="st1">
			<g id="_x38_1_x2C__Coding_x2C__Lcd_x2C__Programming_x2C__Screen">
				<g>
					<path class="st3" d="M38.4,48.8c-0.4-0.4-0.8-0.6-1.3-0.6c-0.5,0-0.9,0.2-1.3,0.5c-0.4,0.3-0.6,0.8-0.6,1.4
						c0,1,0.9,1.9,1.9,1.9c0.5,0,0.9-0.2,1.2-0.5c0.5-0.3,0.7-0.8,0.7-1.4C39,49.6,38.8,49.1,38.4,48.8z"/>
					<path class="st3" d="M30.6,57.8c-2,0-3.6-1.6-3.6-3.6v-0.7c0-0.7,0.6-1.2,1.2-1.2s1.2,0.6,1.2,1.2v0.7c0,0.6,0.4,1,1,1h2.4
						c0.7,0,1.2,0.6,1.2,1.2c0,0.8-0.5,1.3-1.2,1.3H30.6z"/>
					<path class="st3" d="M41.1,57.8c-0.7,0-1.2-0.6-1.2-1.2c0-0.7,0.6-1.2,1.2-1.2h2.4c0.6,0,1-0.4,1-1v-0.7c0-0.7,0.6-1.2,1.2-1.2
						c0.7,0,1.2,0.6,1.2,1.2v0.7c0.1,0.8-0.3,1.7-0.9,2.4c-0.7,0.7-1.6,1.1-2.6,1.1H41.1z"/>
					<path class="st3" d="M41.2,62.4c-0.7,0-1.2-0.6-1.2-1.2v-3.4h-5.6v3.4c0,0.7-0.6,1.2-1.2,1.2c-0.7,0-1.2-0.6-1.2-1.2v-4.7
						c0-0.7,0.6-1.2,1.2-1.2h8.2c0.7,0,1.2,0.6,1.2,1.2v4.8l0,0.1C42.4,61.9,41.8,62.4,41.2,62.4z"/>
					<path class="st3" d="M28.1,65.3c-1.5,0-2.7-1.3-2.7-2.7c0-0.7,0.3-1.4,0.8-1.9c0.5-0.5,1.2-0.8,1.9-0.8h18.1
						c1.5,0,2.7,1.2,2.7,2.7c0,0.7-0.3,1.4-0.8,1.9c-0.5,0.5-1.1,0.8-1.9,0.8H28.1z M28.1,62.4c-0.1,0-0.1,0-0.2,0.1
						c-0.1,0.1-0.1,0.1-0.1,0.2c0,0.1,0.1,0.2,0.2,0.2h18.1c0.1,0,0.1,0,0.2-0.1c0.1-0.1,0.1-0.1,0.1-0.2c0-0.1-0.1-0.2-0.2-0.2
						H28.1z"/>
					<path class="st3" d="M58.3,20.4H16c-0.6,0-1.2,0.6-1.2,1.2V46c0,0.6,0.6,1.2,1.2,1.2h42.3c0.6,0,1.2-0.6,1.2-1.2V21.6
						C59.5,20.9,58.9,20.4,58.3,20.4z M17.2,44.7v-22h39.9v22H17.2z"/>
					<path class="st3" d="M59.1,16.2H15.2c-2.7,0-5,2.2-5,5v28.8c0,2.7,2.2,5,5,5h43.9c2.7,0,5-2.2,5-5V21.1
						C64,18.4,61.8,16.2,59.1,16.2z M12.7,21.1c0-1.4,1.1-2.5,2.5-2.5h43.9c1.4,0,2.5,1.1,2.5,2.5v28.8c0,1.4-1.1,2.5-2.5,2.5H15.2
						c-1.4,0-2.5-1.1-2.5-2.5V21.1z"/>
				</g>
			</g>
			<g id="Layer_1_00000082364432329138780700000014219443699670640547_">
			</g>
		</g>
		<g class="st1">
			<g id="XMLID_9251_">
				<path id="XMLID_9252_" class="st3" d="M33.1,33.9h-3c-0.3,0-0.6-0.3-0.6-0.6s0.3-0.6,0.6-0.6h3c0.3,0,0.6,0.3,0.6,0.6
					S33.4,33.9,33.1,33.9z"/>
			</g>
			<g id="XMLID_9253_">
				<path id="XMLID_9254_" class="st3" d="M43.9,33.9h-8.5c-0.3,0-0.6-0.3-0.6-0.6s0.3-0.6,0.6-0.6h8.5c0.3,0,0.6,0.3,0.6,0.6
					S44.2,33.9,43.9,33.9z"/>
			</g>
			<g id="XMLID_9255_">
				<path id="XMLID_9256_" class="st3" d="M35.5,37h-5.4c-0.3,0-0.6-0.3-0.6-0.6c0-0.3,0.3-0.6,0.6-0.6h5.4c0.3,0,0.6,0.3,0.6,0.6
					C36.1,36.7,35.8,37,35.5,37z"/>
			</g>
			<g id="XMLID_9257_">
				<path id="XMLID_9258_" class="st3" d="M39.1,37h-1.3c-0.3,0-0.6-0.3-0.6-0.6c0-0.3,0.3-0.6,0.6-0.6h1.3c0.3,0,0.6,0.3,0.6,0.6
					C39.7,36.7,39.4,37,39.1,37z"/>
			</g>
			<g id="XMLID_9259_">
				<path id="XMLID_9260_" class="st3" d="M43.3,37h-1.8c-0.3,0-0.6-0.3-0.6-0.6c0-0.3,0.3-0.6,0.6-0.6h1.8c0.3,0,0.6,0.3,0.6,0.6
					C43.9,36.7,43.6,37,43.3,37z"/>
			</g>
			<g id="XMLID_9261_">
				<path id="XMLID_9262_" class="st3" d="M31.9,40H30c-0.3,0-0.6-0.3-0.6-0.6c0-0.3,0.3-0.6,0.6-0.6h1.8c0.3,0,0.6,0.3,0.6,0.6
					C32.5,39.7,32.2,40,31.9,40z"/>
			</g>
			<g id="XMLID_9263_">
				<path id="XMLID_9264_" class="st3" d="M38.5,40h-4.2c-0.3,0-0.6-0.3-0.6-0.6c0-0.3,0.3-0.6,0.6-0.6h4.2c0.3,0,0.6,0.3,0.6,0.6
					C39.1,39.7,38.8,40,38.5,40z"/>
			</g>
			<g id="XMLID_9265_">
				<path id="XMLID_9266_" class="st3" d="M43.3,40h-2.4c-0.3,0-0.6-0.3-0.6-0.6c0-0.3,0.3-0.6,0.6-0.6h2.4c0.3,0,0.6,0.3,0.6,0.6
					C43.9,39.7,43.6,40,43.3,40z"/>
			</g>
			<g id="XMLID_9267_">
				<path id="XMLID_9268_" class="st3" d="M32.5,43H30c-0.3,0-0.6-0.3-0.6-0.6c0-0.3,0.3-0.6,0.6-0.6h2.4c0.3,0,0.6,0.3,0.6,0.6
					C33,42.7,32.8,43,32.5,43z"/>
			</g>
			<g id="XMLID_9269_">
				<path id="XMLID_9270_" class="st3" d="M40.4,43H35c-0.3,0-0.6-0.3-0.6-0.6c0-0.3,0.3-0.6,0.6-0.6h5.4c0.3,0,0.6,0.3,0.6,0.6
					C40.9,42.7,40.6,43,40.4,43z"/>
			</g>
			<g id="XMLID_9271_">
				<path id="XMLID_9272_" class="st3" d="M33,30.4c-0.1,0-0.3,0-0.4-0.1l-3-2.4c-0.1-0.1-0.2-0.3-0.2-0.5c0-0.2,0.1-0.4,0.2-0.5
					l3-2.4c0.3-0.2,0.7-0.2,0.9,0.1c0.2,0.3,0.2,0.7-0.1,0.9L31,27.4l2.4,1.9c0.3,0.2,0.3,0.6,0.1,0.9C33.4,30.3,33.2,30.4,33,30.4z
					"/>
			</g>
			<g id="XMLID_9273_">
				<path id="XMLID_9274_" class="st3" d="M40.4,30.4c-0.2,0-0.4-0.1-0.5-0.2c-0.2-0.3-0.2-0.7,0.1-0.9l2.4-1.9L40,25.5
					c-0.3-0.2-0.3-0.6-0.1-0.9c0.2-0.3,0.6-0.3,0.9-0.1l3,2.4c0.1,0.1,0.2,0.3,0.2,0.5c0,0.2-0.1,0.4-0.2,0.5l-3,2.4
					C40.5,30.3,40.4,30.4,40.4,30.4z"/>
			</g>
			<g id="XMLID_9275_">
				<path id="XMLID_9276_" class="st3" d="M35.4,29.8c-0.1,0-0.2,0-0.3-0.1c-0.3-0.2-0.4-0.6-0.2-0.9l2.4-4.2
					c0.2-0.3,0.6-0.4,0.9-0.2c0.3,0.2,0.4,0.6,0.2,0.9L36,29.5C35.9,29.6,35.7,29.8,35.4,29.8z"/>
			</g>
		</g>
		<path class="st4" d="M49.4,9.4c0.7,0,1.2,0.5,1.2,1.2c0,0.7-0.5,1.2-1.2,1.2c-0.7,0-1.2-0.5-1.2-1.2C48.2,9.9,48.7,9.4,49.4,9.4z"
			/>
		<path class="st4" d="M35.5,5.7c0.7,0,1.2,0.5,1.2,1.2c0,0.7-0.5,1.2-1.2,1.2c-0.7,0-1.2-0.5-1.2-1.2C34.3,6.2,34.8,5.7,35.5,5.7z"
			/>
		<path class="st4" d="M20.7,11.4c0.7,0,1.2,0.5,1.2,1.2c0,0.7-0.5,1.2-1.2,1.2c-0.7,0-1.2-0.5-1.2-1.2C19.5,11.9,20,11.4,20.7,11.4
			z"/>
		<path class="st4" d="M21.9,57.1c0.7,0,1.2,0.5,1.2,1.2c0,0.7-0.5,1.2-1.2,1.2c-0.7,0-1.2-0.5-1.2-1.2
			C20.7,57.6,21.2,57.1,21.9,57.1z"/>
	</g>
</g>
<g id="Capa_6" class="st0">
	<g class="st1">
		<rect x="2.3" y="2.6" class="st5" width="69.8" height="69.8"/>
	</g>
</g>
<g id="Capa_7">
	
		<image style="overflow:visible;" width="1484" height="1094" xlink:href="../../../Screenshot 2024-07-06 at 12.52.43.png"  transform="matrix(0.1289 0 0 0.1289 -218.5418 -3.984)">
	</image>
</g>
<g id="guias">
</g>
<g id="Capa_5">
	<g>
		<polygon class="st6" points="49.8,26.9 49.8,43.3 44.8,43.3 44.8,26.9 44.8,21.8 44.8,16.8 47.3,13 49.8,16.8 49.8,21.8 		"/>
		<polygon class="st6" points="41,26.9 41,35.7 35.9,35.7 35.9,26.9 35.9,21.8 35.9,16.8 38.4,13 41,16.8 41,21.8 		"/>
		<rect x="35.9" y="35.7" class="st6" width="5" height="3.7"/>
		<rect x="35.9" y="39.5" class="st6" width="5" height="3.8"/>
		<polygon class="st6" points="24.6,39.5 24.6,35.7 24.6,31.9 24.6,28.2 24.6,26.9 24.6,24.3 24.6,21.8 24.6,20.6 24.6,16.8 
			24.6,13 32.2,13 32.2,21.8 32.2,26.9 32.2,43.3 24.6,43.3 		"/>
		<path class="st7" d="M59.8,63.5H14.4c-2,0-3.9-0.8-5.3-2.2c-1.4-1.4-2.2-3.3-2.2-5.3c0-0.7,0.6-1.3,1.3-1.3h3.7
			c0.7,0,1.3,0.6,1.3,1.3c0,0.7-0.6,1.3-1.3,1.3H9.6c0.2,0.9,0.7,1.6,1.3,2.3c0.9,0.9,2.2,1.5,3.5,1.5h45.4c2.3,0,4.3-1.6,4.8-3.8
			h-2.3c-0.7,0-1.3-0.6-1.3-1.3c0-0.7,0.6-1.3,1.3-1.3h3.8c0.7,0,1.3,0.6,1.3,1.3C67.4,60.1,64,63.5,59.8,63.5z"/>
		<path class="st7" d="M42.2,59.7H32.1c-0.5,0-0.9-0.3-1.1-0.7l-0.9-1.8H16.9c-0.7,0-1.3-0.6-1.3-1.3c0-0.7,0.6-1.2,1.3-1.2h13.9
			c0.5,0,0.9,0.3,1.1,0.7l0.9,1.8h8.6l0.9-1.8c0.2-0.4,0.6-0.7,1.1-0.7h13.8c0.7,0,1.3,0.6,1.3,1.3c0,0.7-0.6,1.3-1.3,1.3H44.2
			l-0.9,1.8C43.1,59.4,42.7,59.7,42.2,59.7z"/>
		<path class="st7" d="M62.4,57.1h-5c-0.7,0-1.3-0.6-1.3-1.3V28.2h-6.3c-0.7,0-1.3-0.6-1.3-1.3c0-0.7,0.6-1.3,1.3-1.3h7.6
			c0.7,0,1.3,0.6,1.3,1.3v27.8h2.5V25.3c0-1.2-1-2.3-2.3-2.3h-9c-0.7,0-1.3-0.6-1.3-1.3c0-0.7,0.6-1.3,1.3-1.3h9
			c2.6,0,4.8,2.1,4.8,4.8v30.6C63.7,56.5,63.1,57.1,62.4,57.1z"/>
		<path class="st7" d="M16.9,57.1h-5c-0.7,0-1.3-0.6-1.3-1.3V25.3c0-2.6,2.1-4.8,4.8-4.8h9.2c0.7,0,1.3,0.6,1.3,1.3
			c0,0.7-0.6,1.3-1.3,1.3h-9.2c-1.2,0-2.3,1-2.3,2.3v29.3h2.5V26.9c0-0.7,0.6-1.3,1.3-1.3h7.6c0.7,0,1.3,0.6,1.3,1.3
			c0,0.7-0.6,1.3-1.3,1.3h-6.4v27.8C18.2,56.5,17.6,57.1,16.9,57.1z"/>
		<path class="st7" d="M49.8,44.5h-5c-0.7,0-1.3-0.6-1.3-1.3V16.8c0-0.2,0.1-0.5,0.2-0.7l2.5-3.8c0.2-0.3,0.6-0.6,1-0.6
			s0.8,0.2,1,0.6l2.5,3.8c0.1,0.2,0.2,0.4,0.2,0.7v26.5C51,43.9,50.4,44.5,49.8,44.5z M46,42h2.5V17.2l-1.2-1.9L46,17.2V42z"/>
		<path class="st7" d="M41,44.5h-5c-0.7,0-1.3-0.6-1.3-1.3V16.8c0-0.2,0.1-0.5,0.2-0.7l2.5-3.8c0.2-0.3,0.6-0.6,1-0.6s0.8,0.2,1,0.6
			l2.5,3.8c0.1,0.2,0.2,0.4,0.2,0.7v26.5C42.3,43.9,41.7,44.5,41,44.5z M37.2,42h2.5V17.2l-1.3-1.9l-1.2,1.9V42L37.2,42z"/>
		<path class="st7" d="M32.2,44.5h-7.6c-0.7,0-1.3-0.6-1.3-1.3V12.9c0-0.7,0.6-1.3,1.3-1.3h7.6c0.7,0,1.3,0.6,1.3,1.3v30.3
			C33.4,43.9,32.8,44.5,32.2,44.5z M25.8,42h5V14.2h-5V42z"/>
		<path class="st7" d="M28.3,18.1h-3.8c-0.7,0-1.3-0.6-1.3-1.3c0-0.7,0.6-1.3,1.3-1.3h3.8c0.7,0,1.3,0.6,1.3,1.3
			C29.6,17.5,29,18.1,28.3,18.1z"/>
		<path class="st7" d="M27.1,21.8h-2.5c-0.7,0-1.3-0.6-1.3-1.3c0-0.7,0.6-1.3,1.3-1.3h2.5c0.7,0,1.3,0.6,1.3,1.3
			C28.4,21.2,27.7,21.8,27.1,21.8z"/>
		<path class="st7" d="M28.3,25.7h-3.8c-0.7,0-1.3-0.6-1.3-1.3c0-0.7,0.6-1.3,1.3-1.3h3.8c0.7,0,1.3,0.6,1.3,1.3
			C29.6,25,29,25.7,28.3,25.7z"/>
		<path class="st7" d="M27.1,29.4h-2.5c-0.7,0-1.3-0.6-1.3-1.3c0-0.7,0.6-1.3,1.3-1.3h2.5c0.7,0,1.3,0.6,1.3,1.3
			C28.4,28.8,27.7,29.4,27.1,29.4z"/>
		<path class="st7" d="M28.3,33.2h-3.8c-0.7,0-1.3-0.6-1.3-1.3c0-0.7,0.6-1.3,1.3-1.3h3.8c0.7,0,1.3,0.6,1.3,1.3
			C29.6,32.6,29,33.2,28.3,33.2z"/>
		<path class="st7" d="M27.1,37h-2.5c-0.7,0-1.3-0.6-1.3-1.3c0-0.7,0.6-1.3,1.3-1.3h2.5c0.7,0,1.3,0.6,1.3,1.3
			C28.4,36.4,27.7,37,27.1,37z"/>
		<path class="st7" d="M28.3,40.8h-3.8c-0.7,0-1.3-0.6-1.3-1.3c0-0.7,0.6-1.3,1.3-1.3h3.8c0.7,0,1.3,0.6,1.3,1.3
			C29.6,40.2,29,40.8,28.3,40.8z"/>
		<path class="st7" d="M41,40.8h-5c-0.7,0-1.3-0.6-1.3-1.3c0-0.7,0.6-1.3,1.3-1.3h5c0.7,0,1.3,0.6,1.3,1.3
			C42.3,40.2,41.7,40.8,41,40.8z"/>
		<path class="st7" d="M41,37h-5c-0.7,0-1.3-0.6-1.3-1.3c0-0.7,0.6-1.3,1.3-1.3h5c0.7,0,1.3,0.6,1.3,1.3C42.3,36.4,41.7,37,41,37z"
			/>
		<path class="st7" d="M35.9,23.1h-3.8c-0.7,0-1.3-0.6-1.3-1.3c0-0.7,0.6-1.3,1.3-1.3h3.8c0.7,0,1.2,0.6,1.2,1.3
			C37.1,22.5,36.6,23.1,35.9,23.1z"/>
		<path class="st7" d="M35.9,28.2h-3.8c-0.7,0-1.3-0.6-1.3-1.3c0-0.7,0.6-1.3,1.3-1.3h3.8c0.7,0,1.2,0.6,1.2,1.3
			C37.1,27.6,36.6,28.2,35.9,28.2z"/>
		<path class="st7" d="M44.8,28.2H41c-0.7,0-1.3-0.6-1.3-1.3c0-0.7,0.6-1.3,1.3-1.3h3.8c0.7,0,1.3,0.6,1.3,1.3
			C46.1,27.6,45.4,28.2,44.8,28.2z"/>
		<path class="st7" d="M44.8,23.1H41c-0.7,0-1.3-0.6-1.3-1.3c0-0.7,0.6-1.3,1.3-1.3h3.8c0.7,0,1.3,0.6,1.3,1.3
			C46.1,22.5,45.4,23.1,44.8,23.1z"/>
		<path class="st7" d="M51,49.6H23.3c-0.7,0-1.3-0.6-1.3-1.3c0-0.7,0.6-1.3,1.3-1.3H51c0.7,0,1.3,0.6,1.3,1.3
			C52.3,49,51.7,49.6,51,49.6z"/>
		<path class="st7" d="M41,53.4h-7.6c-0.7,0-1.3-0.6-1.3-1.3c0-0.7,0.6-1.3,1.3-1.3H41c0.7,0,1.3,0.6,1.3,1.3
			C42.2,52.8,41.6,53.4,41,53.4z"/>
	</g>
</g>
</svg>
