<?xml version="1.0" encoding="utf-8"?>
<!-- Generator: Adobe Illustrator 23.0.3, SVG Export Plug-In . SVG Version: 6.00 Build 0)  -->
<svg version="1.1" xmlns="http://www.w3.org/2000/svg" xmlns:xlink="http://www.w3.org/1999/xlink" x="0px" y="0px"
	 viewBox="0 0 75 75" style="enable-background:new 0 0 75 75;" xml:space="preserve">
<style type="text/css">
	.st0{display:none;}
	.st1{display:inline;}
	.st2{opacity:0.5;fill:#FFFFFF;}
	.st3{fill:#FFFFFF;}
	.st4{display:inline;fill:#FFFFFF;}
	.st5{fill:#8F7F90;}
	.st6{fill:#BBAFB1;}
	.st7{fill:#644F6F;}
	.st8{fill:#75627F;}
	.st9{fill:#84758D;}
	.st10{fill:#A59BAC;}
	.st11{fill:#EAEAEA;}
	.st12{fill:#A0A7B2;}
	.st13{fill:#5A687C;}
	.st14{fill:#EDDBDB;}
	.st15{opacity:0.5;}
	.st16{fill:none;stroke:#EAEAEA;stroke-width:3;stroke-linecap:round;stroke-linejoin:round;stroke-miterlimit:10;}
	.st17{fill:#EAEAEA;stroke:#EAEAEA;stroke-width:1.4375;stroke-linecap:round;stroke-linejoin:round;stroke-miterlimit:10;}
	.st18{fill:#EAEAEA;stroke:#EAEAEA;stroke-width:1.7756;stroke-linecap:round;stroke-linejoin:round;stroke-miterlimit:10;}
</style>
<g id="Capa_1" class="st0">
	<g id="Capa_2">
		<g id="Capa_3" class="st1">
			<rect x="15.8" y="21.3" class="st2" width="42.8" height="24.5"/>
		</g>
		<g class="st1">
			<g id="_x38_1_x2C__Coding_x2C__Lcd_x2C__Programming_x2C__Screen">
				<g>
					<path class="st3" d="M38.4,48.8c-0.4-0.4-0.8-0.6-1.3-0.6c-0.5,0-0.9,0.2-1.3,0.5c-0.4,0.3-0.6,0.8-0.6,1.4
						c0,1,0.9,1.9,1.9,1.9c0.5,0,0.9-0.2,1.2-0.5c0.5-0.3,0.7-0.8,0.7-1.4C39,49.6,38.8,49.1,38.4,48.8z"/>
					<path class="st3" d="M30.6,57.8c-2,0-3.6-1.6-3.6-3.6v-0.7c0-0.7,0.6-1.2,1.2-1.2s1.2,0.6,1.2,1.2v0.7c0,0.6,0.4,1,1,1h2.4
						c0.7,0,1.2,0.6,1.2,1.2c0,0.8-0.5,1.3-1.2,1.3H30.6z"/>
					<path class="st3" d="M41.1,57.8c-0.7,0-1.2-0.6-1.2-1.2c0-0.7,0.6-1.2,1.2-1.2h2.4c0.6,0,1-0.4,1-1v-0.7c0-0.7,0.6-1.2,1.2-1.2
						c0.7,0,1.2,0.6,1.2,1.2v0.7c0.1,0.8-0.3,1.7-0.9,2.4c-0.7,0.7-1.6,1.1-2.6,1.1H41.1z"/>
					<path class="st3" d="M41.2,62.4c-0.7,0-1.2-0.6-1.2-1.2v-3.4h-5.6v3.4c0,0.7-0.6,1.2-1.2,1.2c-0.7,0-1.2-0.6-1.2-1.2v-4.7
						c0-0.7,0.6-1.2,1.2-1.2h8.2c0.7,0,1.2,0.6,1.2,1.2v4.8l0,0.1C42.4,61.9,41.8,62.4,41.2,62.4z"/>
					<path class="st3" d="M28.1,65.3c-1.5,0-2.7-1.3-2.7-2.7c0-0.7,0.3-1.4,0.8-1.9c0.5-0.5,1.2-0.8,1.9-0.8h18.1
						c1.5,0,2.7,1.2,2.7,2.7c0,0.7-0.3,1.4-0.8,1.9c-0.5,0.5-1.1,0.8-1.9,0.8H28.1z M28.1,62.4c-0.1,0-0.1,0-0.2,0.1
						c-0.1,0.1-0.1,0.1-0.1,0.2c0,0.1,0.1,0.2,0.2,0.2h18.1c0.1,0,0.1,0,0.2-0.1c0.1-0.1,0.1-0.1,0.1-0.2c0-0.1-0.1-0.2-0.2-0.2
						H28.1z"/>
					<path class="st3" d="M58.3,20.4H16c-0.6,0-1.2,0.6-1.2,1.2V46c0,0.6,0.6,1.2,1.2,1.2h42.3c0.6,0,1.2-0.6,1.2-1.2V21.6
						C59.5,20.9,58.9,20.4,58.3,20.4z M17.2,44.7v-22h39.9v22H17.2z"/>
					<path class="st3" d="M59.1,16.2H15.2c-2.7,0-5,2.2-5,5v28.8c0,2.7,2.2,5,5,5h43.9c2.7,0,5-2.2,5-5V21.1
						C64,18.4,61.8,16.2,59.1,16.2z M12.7,21.1c0-1.4,1.1-2.5,2.5-2.5h43.9c1.4,0,2.5,1.1,2.5,2.5v28.8c0,1.4-1.1,2.5-2.5,2.5H15.2
						c-1.4,0-2.5-1.1-2.5-2.5V21.1z"/>
				</g>
			</g>
			<g id="Layer_1_00000082364432329138780700000014219443699670640547_">
			</g>
		</g>
		<g class="st1">
			<g id="XMLID_9251_">
				<path id="XMLID_9252_" class="st3" d="M33.1,33.9h-3c-0.3,0-0.6-0.3-0.6-0.6s0.3-0.6,0.6-0.6h3c0.3,0,0.6,0.3,0.6,0.6
					S33.4,33.9,33.1,33.9z"/>
			</g>
			<g id="XMLID_9253_">
				<path id="XMLID_9254_" class="st3" d="M43.9,33.9h-8.5c-0.3,0-0.6-0.3-0.6-0.6s0.3-0.6,0.6-0.6h8.5c0.3,0,0.6,0.3,0.6,0.6
					S44.2,33.9,43.9,33.9z"/>
			</g>
			<g id="XMLID_9255_">
				<path id="XMLID_9256_" class="st3" d="M35.5,37h-5.4c-0.3,0-0.6-0.3-0.6-0.6c0-0.3,0.3-0.6,0.6-0.6h5.4c0.3,0,0.6,0.3,0.6,0.6
					C36.1,36.7,35.8,37,35.5,37z"/>
			</g>
			<g id="XMLID_9257_">
				<path id="XMLID_9258_" class="st3" d="M39.1,37h-1.3c-0.3,0-0.6-0.3-0.6-0.6c0-0.3,0.3-0.6,0.6-0.6h1.3c0.3,0,0.6,0.3,0.6,0.6
					C39.7,36.7,39.4,37,39.1,37z"/>
			</g>
			<g id="XMLID_9259_">
				<path id="XMLID_9260_" class="st3" d="M43.3,37h-1.8c-0.3,0-0.6-0.3-0.6-0.6c0-0.3,0.3-0.6,0.6-0.6h1.8c0.3,0,0.6,0.3,0.6,0.6
					C43.9,36.7,43.6,37,43.3,37z"/>
			</g>
			<g id="XMLID_9261_">
				<path id="XMLID_9262_" class="st3" d="M31.9,40H30c-0.3,0-0.6-0.3-0.6-0.6c0-0.3,0.3-0.6,0.6-0.6h1.8c0.3,0,0.6,0.3,0.6,0.6
					C32.5,39.7,32.2,40,31.9,40z"/>
			</g>
			<g id="XMLID_9263_">
				<path id="XMLID_9264_" class="st3" d="M38.5,40h-4.2c-0.3,0-0.6-0.3-0.6-0.6c0-0.3,0.3-0.6,0.6-0.6h4.2c0.3,0,0.6,0.3,0.6,0.6
					C39.1,39.7,38.8,40,38.5,40z"/>
			</g>
			<g id="XMLID_9265_">
				<path id="XMLID_9266_" class="st3" d="M43.3,40h-2.4c-0.3,0-0.6-0.3-0.6-0.6c0-0.3,0.3-0.6,0.6-0.6h2.4c0.3,0,0.6,0.3,0.6,0.6
					C43.9,39.7,43.6,40,43.3,40z"/>
			</g>
			<g id="XMLID_9267_">
				<path id="XMLID_9268_" class="st3" d="M32.5,43H30c-0.3,0-0.6-0.3-0.6-0.6c0-0.3,0.3-0.6,0.6-0.6h2.4c0.3,0,0.6,0.3,0.6,0.6
					C33,42.7,32.8,43,32.5,43z"/>
			</g>
			<g id="XMLID_9269_">
				<path id="XMLID_9270_" class="st3" d="M40.4,43H35c-0.3,0-0.6-0.3-0.6-0.6c0-0.3,0.3-0.6,0.6-0.6h5.4c0.3,0,0.6,0.3,0.6,0.6
					C40.9,42.7,40.6,43,40.4,43z"/>
			</g>
			<g id="XMLID_9271_">
				<path id="XMLID_9272_" class="st3" d="M33,30.4c-0.1,0-0.3,0-0.4-0.1l-3-2.4c-0.1-0.1-0.2-0.3-0.2-0.5c0-0.2,0.1-0.4,0.2-0.5
					l3-2.4c0.3-0.2,0.7-0.2,0.9,0.1c0.2,0.3,0.2,0.7-0.1,0.9L31,27.4l2.4,1.9c0.3,0.2,0.3,0.6,0.1,0.9C33.4,30.3,33.2,30.4,33,30.4z
					"/>
			</g>
			<g id="XMLID_9273_">
				<path id="XMLID_9274_" class="st3" d="M40.4,30.4c-0.2,0-0.4-0.1-0.5-0.2c-0.2-0.3-0.2-0.7,0.1-0.9l2.4-1.9L40,25.5
					c-0.3-0.2-0.3-0.6-0.1-0.9c0.2-0.3,0.6-0.3,0.9-0.1l3,2.4c0.1,0.1,0.2,0.3,0.2,0.5c0,0.2-0.1,0.4-0.2,0.5l-3,2.4
					C40.5,30.3,40.4,30.4,40.4,30.4z"/>
			</g>
			<g id="XMLID_9275_">
				<path id="XMLID_9276_" class="st3" d="M35.4,29.8c-0.1,0-0.2,0-0.3-0.1c-0.3-0.2-0.4-0.6-0.2-0.9l2.4-4.2
					c0.2-0.3,0.6-0.4,0.9-0.2c0.3,0.2,0.4,0.6,0.2,0.9L36,29.5C35.9,29.6,35.7,29.8,35.4,29.8z"/>
			</g>
		</g>
		<path class="st4" d="M49.4,9.4c0.7,0,1.2,0.5,1.2,1.2c0,0.7-0.5,1.2-1.2,1.2c-0.7,0-1.2-0.5-1.2-1.2C48.2,9.9,48.7,9.4,49.4,9.4z"
			/>
		<path class="st4" d="M35.5,5.7c0.7,0,1.2,0.5,1.2,1.2c0,0.7-0.5,1.2-1.2,1.2c-0.7,0-1.2-0.5-1.2-1.2C34.3,6.2,34.8,5.7,35.5,5.7z"
			/>
		<path class="st4" d="M20.7,11.4c0.7,0,1.2,0.5,1.2,1.2c0,0.7-0.5,1.2-1.2,1.2c-0.7,0-1.2-0.5-1.2-1.2C19.5,11.9,20,11.4,20.7,11.4
			z"/>
		<path class="st4" d="M21.9,57.1c0.7,0,1.2,0.5,1.2,1.2c0,0.7-0.5,1.2-1.2,1.2c-0.7,0-1.2-0.5-1.2-1.2
			C20.7,57.6,21.2,57.1,21.9,57.1z"/>
	</g>
</g>
<g id="Capa_6" class="st0">
	<g class="st1">
		<rect x="2.3" y="2.6" class="st5" width="69.8" height="69.8"/>
	</g>
</g>
<g id="Capa_7">
	
		<image style="overflow:visible;" width="1484" height="1094" xlink:href="../../../Screenshot 2024-07-06 at 12.52.43.png"  transform="matrix(0.1289 0 0 0.1289 -215.6794 -2.1125)">
	</image>
</g>
<g id="guias">
</g>
<g id="Capa_5">
</g>
<g id="Capa_8">
	<rect x="-202.5" y="-82.8" class="st6" width="16.6" height="73.1"/>
	<rect x="-185.9" y="-82.8" class="st5" width="16.6" height="73.1"/>
	<rect x="-169.3" y="-82.8" class="st7" width="16.6" height="73.1"/>
	<rect x="-152.7" y="-82.8" class="st8" width="16.6" height="73.1"/>
	<rect x="-136.1" y="-82.8" class="st9" width="16.6" height="73.1"/>
	<rect x="-119.5" y="-82.8" class="st10" width="16.6" height="73.1"/>
	<rect x="-102.9" y="-82.8" class="st11" width="16.6" height="73.1"/>
	<rect x="-86.3" y="-82.8" class="st12" width="16.6" height="73.1"/>
	<rect x="-69.7" y="-82.8" class="st13" width="16.6" height="73.1"/>
	<rect x="-53.1" y="-82.8" class="st14" width="16.6" height="73.1"/>
	<text transform="matrix(1 0 0 1 -199.2109 -4.7832)" style="font-family:'ArialMT'; font-size:1.9929px;">Exported from Coolors.co</text>
	<text transform="matrix(1 0 0 1 -125.9775 -4.7832)" style="font-family:'ArialMT'; font-size:1.9929px;">https://coolors.co/c2b2b4-978093-6b4e71-7c6281-8c7690-ac9daf-ececec-a0aab5-53687e-f5dddd</text>
	<g>
		<g>
			<path class="st11" d="M61.3,23.6c1.3,0,2.3,1,2.3,2.3v34.2c0,1.3-1,2.3-2.3,2.3H13.3c-1.3,0-2.3-1-2.3-2.3V25.9
				c0-1.3,1-2.3,2.3-2.3H61.3 M61.3,19.6H13.3c-3.5,0-6.3,2.8-6.3,6.3v34.2c0,3.5,2.8,6.3,6.3,6.3h47.9c3.5,0,6.3-2.8,6.3-6.3V25.9
				C67.6,22.4,64.7,19.6,61.3,19.6L61.3,19.6z"/>
		</g>
		<g class="st15">
			<path class="st11" d="M13.6,60C13.5,60,13.5,60,13.6,60l-0.1-27.7c0,0,0-0.1,0.1-0.1H61c0,0,0.1,0,0.1,0.1V60c0,0,0,0.1-0.1,0.1
				H13.6z"/>
			<path class="st11" d="M59.6,33.8v24.7H15V33.8H59.6 M61,30.8H13.6c-0.9,0-1.6,0.7-1.6,1.6V60c0,0.9,0.7,1.6,1.6,1.6H61
				c0.9,0,1.6-0.7,1.6-1.6V32.4C62.6,31.5,61.9,30.8,61,30.8L61,30.8z"/>
		</g>
		<g>
			<path class="st11" d="M60.3,33.1v26.1h-46V33.1H60.3 M61,30.8H13.6c-0.9,0-1.6,0.7-1.6,1.6V60c0,0.9,0.7,1.6,1.6,1.6H61
				c0.9,0,1.6-0.7,1.6-1.6V32.4C62.6,31.5,61.9,30.8,61,30.8L61,30.8z"/>
		</g>
		<g>
			<path class="st11" d="M19,29.3h-4.7c-0.7,0-1.2-0.5-1.2-1.2v-1c0-0.7,0.5-1.2,1.2-1.2H19c0.7,0,1.2,0.5,1.2,1.2v1
				C20.2,28.7,19.7,29.3,19,29.3z"/>
			<path class="st11" d="M60.3,29.3h-4.7c-0.7,0-1.2-0.5-1.2-1.2v-1c0-0.7,0.5-1.2,1.2-1.2h4.7c0.7,0,1.2,0.5,1.2,1.2v1
				C61.5,28.7,61,29.3,60.3,29.3z"/>
		</g>
	</g>
	<g>
		<rect x="13.5" y="10.7" class="st16" width="46.8" height="5.5"/>
		<polygon class="st17" points="66.2,13.5 61.4,10.7 61.4,16.2 		"/>
		<path class="st18" d="M9.6,16.7h1.6v-6.5H9.6c-1.2,0-2.1,1.5-2.1,3.2l0,0C7.4,15.3,8.4,16.7,9.6,16.7z"/>
	</g>
</g>
</svg>
